<svg xmlns="http://www.w3.org/2000/svg" viewBox="0 0 990 470" font-family="Helvetica">
<rect width="990" height="470" fill="#fafafa"/>
<text x="495" y="34" text-anchor="middle" font-size="20" font-weight="bold" fill="#2e7d32">FarmTech Fase 7 - MER/DER do banco (SQLite)</text>
<path d="M270,295 H325.0 V221 H380" fill="none" stroke="#555" stroke-width="2"/><text x="282" y="289" fill="#555" font-family="Helvetica" font-size="14" font-weight="bold">1</text><text x="358" y="215" fill="#555" font-family="Helvetica" font-size="14" font-weight="bold">N</text>
<path d="M610,195 H675.0 V141 H740" fill="none" stroke="#555" stroke-width="2"/><text x="622" y="189" fill="#555" font-family="Helvetica" font-size="14" font-weight="bold">1</text><text x="718" y="135" fill="#555" font-family="Helvetica" font-size="14" font-weight="bold">N</text>
<rect x="40" y="250" width="230" height="110" rx="8" fill="#fff" stroke="#2e7d32" stroke-width="2"/>
<path d="M40,282 v-24 q0,-8 8,-8 h214 q8,0 8,8 v24 z" fill="#2e7d32"/>
<text x="155.0" y="271" text-anchor="middle" fill="#fff" font-family="Helvetica" font-size="15" font-weight="bold">culturas</text>
<text x="54" y="299" fill="#1b5e20" font-family="Helvetica" font-size="13" font-weight="bold">id  (PK)</text>
<rect x="41" y="308" width="228" height="26" fill="#f1f8e9"/>
<text x="54" y="325" fill="#333" font-family="Helvetica" font-size="13" font-weight="normal">nome</text>
<text x="54" y="351" fill="#333" font-family="Helvetica" font-size="13" font-weight="normal">descricao</text>
<rect x="380" y="150" width="230" height="240" rx="8" fill="#fff" stroke="#2e7d32" stroke-width="2"/>
<path d="M380,182 v-24 q0,-8 8,-8 h214 q8,0 8,8 v24 z" fill="#2e7d32"/>
<text x="495.0" y="171" text-anchor="middle" fill="#fff" font-family="Helvetica" font-size="15" font-weight="bold">talhoes</text>
<text x="394" y="199" fill="#1b5e20" font-family="Helvetica" font-size="13" font-weight="bold">id  (PK)</text>
<rect x="381" y="208" width="228" height="26" fill="#f1f8e9"/>
<text x="394" y="225" fill="#e65100" font-family="Helvetica" font-size="13" font-weight="bold">cultura_id  (FK)</text>
<text x="394" y="251" fill="#333" font-family="Helvetica" font-size="13" font-weight="normal">nome</text>
<rect x="381" y="260" width="228" height="26" fill="#f1f8e9"/>
<text x="394" y="277" fill="#333" font-family="Helvetica" font-size="13" font-weight="normal">area_m2</text>
<text x="394" y="303" fill="#333" font-family="Helvetica" font-size="13" font-weight="normal">ruas</text>
<rect x="381" y="312" width="228" height="26" fill="#f1f8e9"/>
<text x="394" y="329" fill="#333" font-family="Helvetica" font-size="13" font-weight="normal">metros_por_rua</text>
<text x="394" y="355" fill="#333" font-family="Helvetica" font-size="13" font-weight="normal">dose_ml_por_m</text>
<rect x="381" y="364" width="228" height="26" fill="#f1f8e9"/>
<text x="394" y="381" fill="#333" font-family="Helvetica" font-size="13" font-weight="normal">litros</text>
<rect x="740" y="70" width="230" height="266" rx="8" fill="#fff" stroke="#2e7d32" stroke-width="2"/>
<path d="M740,102 v-24 q0,-8 8,-8 h214 q8,0 8,8 v24 z" fill="#2e7d32"/>
<text x="855.0" y="91" text-anchor="middle" fill="#fff" font-family="Helvetica" font-size="15" font-weight="bold">leituras_sensores</text>
<text x="754" y="119" fill="#1b5e20" font-family="Helvetica" font-size="13" font-weight="bold">id  (PK)</text>
<rect x="741" y="128" width="228" height="26" fill="#f1f8e9"/>
<text x="754" y="145" fill="#e65100" font-family="Helvetica" font-size="13" font-weight="bold">talhao_id  (FK)</text>
<text x="754" y="171" fill="#333" font-family="Helvetica" font-size="13" font-weight="normal">data_hora</text>
<rect x="741" y="180" width="228" height="26" fill="#f1f8e9"/>
<text x="754" y="197" fill="#333" font-family="Helvetica" font-size="13" font-weight="normal">umidade</text>
<text x="754" y="223" fill="#333" font-family="Helvetica" font-size="13" font-weight="normal">ph_ldr</text>
<rect x="741" y="232" width="228" height="26" fill="#f1f8e9"/>
<text x="754" y="249" fill="#333" font-family="Helvetica" font-size="13" font-weight="normal">status_n</text>
<text x="754" y="275" fill="#333" font-family="Helvetica" font-size="13" font-weight="normal">status_p</text>
<rect x="741" y="284" width="228" height="26" fill="#f1f8e9"/>
<text x="754" y="301" fill="#333" font-family="Helvetica" font-size="13" font-weight="normal">status_k</text>
<text x="754" y="327" fill="#333" font-family="Helvetica" font-size="13" font-weight="normal">status_bomba</text>
<text x="40" y="455" font-size="12" fill="#777">PK = chave primaria   |   FK = chave estrangeira   |   1:N = um para muitos</text>
</svg>